# xmcd
#
# Track frame offsets: 
#        150
#        27182
#        53190
#        77637
#        103157
#        127032
#        145167
#        161195
#        186830
#        201682
#        219747
#        245152
#
# Disc length: 3598 seconds
#
# Revision: 0
# Processed by: cddbd v1.5PL3 Copyright (c) Steve Scherf et al.
# Submitted via: ExactAudioCopy v0.95a3
#
DISCID=bd0e0c0c
DTITLE=Luther Kent and Trick Bag - Live
DYEAR=1900
DGENRE=Blues
TTITLE0=My Good Friend Rodney
TTITLE1=That Did It, Baby
TTITLE2=Let's Straighten It Out
TTITLE3=29 Ways
TTITLE4=Them That Got
TTITLE5=Trick Bag
TTITLE6=Cry
TTITLE7=Hoochie Coochie Man
TTITLE8=If You Want to be My Baby You Can't Run Around
TTITLE9=Born Under a Bad Sign
TTITLE10=I Can't Quit You Baby
TTITLE11=Let the Good Times Roll
EXTD=
EXTT0=
EXTT1=
EXTT2=
EXTT3=
EXTT4=
EXTT5=
EXTT6=
EXTT7=
EXTT8=
EXTT9=
EXTT10=
EXTT11=
PLAYORDER=
